{"title":"My Kontrabida Girl [2012] CAMRip H264 elite-pirates","uid":7175432,"size":704918983,"categoryP":"video","categoryS":"movies","magnet":"?xt=urn:btih:7676cb42b62b7d5d6170ce0c309772b6f8a3b754&amp;dn=My+Kontrabida+Girl+%5B2012%5D+CAMRip+H264+elite-pirates&amp;tr=udp%3A%2F%2Ftracker.openbittorrent.com%3A80&amp;tr=udp%3A%2F%2Fopen.demonii.com%3A1337&amp;tr=udp%3A%2F%2Ftracker.coppersurfer.tk%3A6969&amp;tr=udp%3A%2F%2Fexodus.desync.com%3A6969","seeders":1,"leechers":0,"uploader":"BLOVES","files":6,"time":1334094565,"description":"IMDb : http://www.imdb.com/title/tt2292817/\nSource : Mangkanor... Thanks!!!\nEncoder : dcloser\nAudio Language : Tagalog/Filipino\nSubtitles : No\n\n\nGeneral\nComplete name : My Kontrabida Girl [2012] CAMRip H264 elite-pirates.com.avi\nFormat : AVI\nFormat/Info : Audio Video Interleave\nFile size : 672 MiB\nDuration : 2h 49mn\nOverall bit rate : 775 Kbps\nWriting application : Lavf52.91.0\nWriting library : VirtualDub build 32842/release\n\nVideo\nID : 0\nFormat : AVC\nFormat/Info : Advanced Video Codec\nFormat profile : &lt;a class=&quot;__cf_email__&quot; href=&quot;/cdn-cgi/l/email-protection&quot; data-cfemail=&quot;e0a8898788a0acd3ced0&quot;&gt;[email&amp;#160;protected]&lt;/a&gt;&lt;script cf-hash='f9e31' type=&quot;text/javascript&quot;&gt;\n/* &lt;![CDATA[ */!function(){try{var t=&quot;currentScript&quot;in document?document.currentScript:function(){for(var t=document.getElementsByTagName(&quot;script&quot;),e=t.length;e--;)if(t[e].getAttribute(&quot;cf-hash&quot;))return t[e]}();if(t&amp;&amp;t.previousSibling){var e,r,n,i,c=t.previousSibling,a=c.getAttribute(&quot;data-cfemail&quot;);if(a){for(e=&quot;&quot;,r=parseInt(a.substr(0,2),16),n=2;a.length-n;n+=2)i=parseInt(a.substr(n,2),16)^r,e+=String.fromCharCode(i);e=document.createTextNode(e),c.parentNode.replaceChild(e,c)}}}catch(u){}}();/* ]]&gt; */&lt;/script&gt;\nFormat settings, CABAC : Yes\nFormat settings, ReFrames : 3 frames\nCodec ID : H264\nDuration : 2h 49mn\nBit rate : 731 Kbps\nWidth : 640 pixels\nHeight : 480 pixels\nDisplay aspect ratio : 4:3\nFrame rate : 29.970 fps\nColor space : YUV\nChroma subsampling : 4:2:0\nBit depth : 8 bits\nScan type : Progressive\nBits/(Pixel*Frame) : 0.079\nStream size : 270 MiB (94%)\nWriting library : x264 core 120 r2120bm 0c7dab9\nEncoding settings : cabac=1 / ref=3 / deblock=1:0:0 / analyse=0x3:0x113\n\nAudio\nID : 1\nFormat : MPEG Audio\nFormat version : Version 2\nFormat profile : Layer 3\nCodec ID : 55\nCodec ID/Hint : MP3\nDuration : 2h 49mn\nBit rate mode : Constant\nBit rate : 32.0 Kbps\nChannel(s) : 1 channel\nSampling rate : 22.05 KHz\nCompression mode : Lossy\nDelay relative to video : 9ms\nStream size : 11.8 MiB (4%)\nAlignment : Split accross interleaves\nInterleave, duration : 33 ms (1.00 video frame)\nInterleave, preload duration : 500 ms\n","torrent":{"xt":"urn:btih:7676cb42b62b7d5d6170ce0c309772b6f8a3b754","amp;dn":"My+Kontrabida+Girl+%5B2012%5D+CAMRip+H264+elite-pirates","amp;tr":["udp%3A%2F%2Ftracker.openbittorrent.com%3A80","udp%3A%2F%2Fopen.demonii.com%3A1337","udp%3A%2F%2Ftracker.coppersurfer.tk%3A6969","udp%3A%2F%2Fexodus.desync.com%3A6969"],"infoHash":"7676cb42b62b7d5d6170ce0c309772b6f8a3b754","infoHashBuffer":{"type":"Buffer","data":[118,118,203,66,182,43,125,93,97,112,206,12,48,151,114,182,248,163,183,84]},"announce":[],"urlList":[]}}